# xmcd CD database file
#
# Track frame offsets:
#	150
#	33242
#	62820
#	81410
#	108847
#	135410
#	166017
#	186135
#
# Disc length: 2692 seconds
#
# Revision: 0
# Processed by: cddbd v1.5.1PL2 Copyright (c) Steve Scherf et al.
# Submitted via: CDex 1.51
#
DISCID=5d0a8208
DTITLE=これが私の御主人様　ＣＨＡＲＡＣＴＥＲ　ＡＬＢＵＭ　００３“ＡＮＮＡ” - ＣＨＡＲＡＣＴＥＲ　ＡＬＢＵＭ　００３“ＡＮＮＡ”
DYEAR=2005
DGENRE=アニメ
TTITLE0=ドラマ「ハッピーハピネスウエディング」
TTITLE1=ドラマ「ラブラブトラベルチュッチュッチュッ」
TTITLE2=恋心　歌：倉内安奈（植田佳奈）
TTITLE3=ドラマ「スイートデリシャスホーム」
TTITLE4=ドラマ「プリティーラブリーベイビー」
TTITLE5=ドラマ「マイハニーフォーエヴァー」
TTITLE6=Happy feeling 歌：いずみ＆みつき（浅野真澄＆清水愛）
TTITLE7=愛情のカタマリ　歌：倉内安奈（植田佳奈）
EXTD=YEAR: 2005
EXTT0=
EXTT1=
EXTT2=
EXTT3=
EXTT4=
EXTT5=
EXTT6=
EXTT7=
PLAYORDER=
